<?xml version="1.0" standalone="no"?>
<!DOCTYPE svg PUBLIC "-//W3C//DTD SVG 1.1//EN" "http://www.w3.org/Graphics/SVG/1.1/DTD/svg11.dtd">
<svg t="1717034512036" class="icon" viewBox="0 0 1024 1024" version="1.1" xmlns="http://www.w3.org/2000/svg" p-id="2810"
     width="200" height="200">
  <path
      d="M512 0C230.4 0 0 230.4 0 512s230.4 512 512 512 512-230.4 512-512S793.6 0 512 0zM454.4 620.8c-25.6 0-44.8 19.2-64 38.4C371.2 620.8 339.2 588.8 300.8 588.8c-12.8 0-32 6.4-51.2 6.4C198.4 563.2 134.4 537.6 134.4 537.6s96-38.4 134.4-83.2c0 0 32 6.4 38.4 6.4 19.2 0 38.4-6.4 51.2-19.2C371.2 441.6 377.6 448 384 448c44.8 0 76.8-32 76.8-76.8 0-12.8 0-19.2-6.4-25.6C460.8 332.8 467.2 320 473.6 307.2c0-19.2-6.4-32-6.4-51.2C499.2 198.4 518.4 128 518.4 128s32 102.4 76.8 147.2c0 0-6.4 32-6.4 44.8 0 38.4 19.2 76.8 57.6 96l0 0C627.2 435.2 614.4 454.4 614.4 473.6c0 6.4 0 12.8 0 19.2C601.6 473.6 569.6 454.4 544 454.4L544 243.2c0-6.4-32-6.4-32 0l0 217.6C480 467.2 460.8 486.4 448 512L243.2 512c-6.4 0-6.4 32 0 32l198.4 0c0 6.4 0 12.8 0 12.8 0 25.6 6.4 44.8 25.6 64C460.8 627.2 454.4 620.8 454.4 620.8zM537.6 480c44.8 0 76.8 32 76.8 76.8S582.4 633.6 537.6 633.6 467.2 595.2 467.2 556.8 499.2 480 537.6 480zM512 889.6c-19.2 0-32-12.8-32-32s12.8-32 32-32c179.2 0 326.4-140.8 326.4-313.6 0-19.2 12.8-32 32-32s32 12.8 32 32C902.4 723.2 729.6 889.6 512 889.6z"
      fill="#3B7C78" p-id="2811">

  </path>
</svg>
